<svg width="40" height="40" viewBox="0 0 40 40" fill="none" xmlns="http://www.w3.org/2000/svg">
<rect width="40" height="40" rx="10" fill="#6AD375"/>
<path d="M29.3774 12.425C29.4942 12.5422 29.5598 12.7008 29.5598 12.8663C29.5598 13.0317 29.4942 13.1903 29.3774 13.3075L28.0736 14.6125L25.5736 12.1125L26.8774 10.8075C26.9946 10.6903 27.1535 10.6245 27.3193 10.6245C27.485 10.6245 27.6439 10.6903 27.7611 10.8075L29.3774 12.4238V12.425ZM27.1899 15.495L24.6899 12.995L16.1736 21.5125C16.1048 21.5813 16.0531 21.6652 16.0224 21.7575L15.0161 24.775C14.9979 24.83 14.9953 24.889 15.0087 24.9454C15.022 25.0018 15.0508 25.0534 15.0918 25.0944C15.1328 25.1354 15.1843 25.1641 15.2407 25.1775C15.2971 25.1908 15.3561 25.1883 15.4111 25.17L18.4286 24.1638C18.5208 24.1335 18.6047 24.0821 18.6736 24.0138L27.1899 15.495Z" fill="white"/>
<path fill-rule="evenodd" clip-rule="evenodd" d="M11.25 26.875C11.25 27.3723 11.4475 27.8492 11.7992 28.2008C12.1508 28.5525 12.6277 28.75 13.125 28.75H26.875C27.3723 28.75 27.8492 28.5525 28.2008 28.2008C28.5525 27.8492 28.75 27.3723 28.75 26.875V19.375C28.75 19.2092 28.6842 19.0503 28.5669 18.9331C28.4497 18.8158 28.2908 18.75 28.125 18.75C27.9592 18.75 27.8003 18.8158 27.6831 18.9331C27.5658 19.0503 27.5 19.2092 27.5 19.375V26.875C27.5 27.0408 27.4342 27.1997 27.3169 27.3169C27.1997 27.4342 27.0408 27.5 26.875 27.5H13.125C12.9592 27.5 12.8003 27.4342 12.6831 27.3169C12.5658 27.1997 12.5 27.0408 12.5 26.875V13.125C12.5 12.9592 12.5658 12.8003 12.6831 12.6831C12.8003 12.5658 12.9592 12.5 13.125 12.5H21.25C21.4158 12.5 21.5747 12.4342 21.6919 12.3169C21.8092 12.1997 21.875 12.0408 21.875 11.875C21.875 11.7092 21.8092 11.5503 21.6919 11.4331C21.5747 11.3158 21.4158 11.25 21.25 11.25H13.125C12.6277 11.25 12.1508 11.4475 11.7992 11.7992C11.4475 12.1508 11.25 12.6277 11.25 13.125V26.875Z" fill="white"/>
</svg>
