<svg width="90" height="90" viewBox="0 0 90 90" fill="none" xmlns="http://www.w3.org/2000/svg">
<g clip-path="url(#clip0_75_899)">
<path d="M45.0002 0.330078C57.3034 0.330078 68.4517 5.32416 76.522 13.382C84.5771 21.4552 89.5695 32.608 89.5695 44.9147C89.5695 57.2229 84.5764 68.3743 76.522 76.4474C68.4524 84.5067 57.3034 89.5001 45.0002 89.5001C32.697 89.5001 21.548 84.5067 13.4776 76.4481C5.42254 68.375 0.430176 57.2229 0.430176 44.9147C0.430176 32.608 5.42254 21.4552 13.4776 13.382C21.5487 5.32416 32.697 0.330078 45.0002 0.330078ZM53.714 28.7416C55.7089 26.7156 58.9522 26.7061 60.958 28.7228C62.9631 30.7372 62.9711 34.0144 60.9776 36.0397L52.2254 44.9191L60.9863 53.8086C62.9653 55.8187 62.937 59.0741 60.9276 61.0805C58.9167 63.0877 55.6835 63.0819 53.7067 61.0718L45.0038 52.2455L36.2864 61.09C34.2915 63.1168 31.0488 63.1255 29.043 61.1081C27.0387 59.0944 27.0293 55.8172 29.0242 53.7919L37.775 44.9118L29.0133 36.0223C27.0358 34.0129 27.0626 30.7568 29.0728 28.7496C31.0837 26.7431 34.3169 26.7482 36.2936 28.7591L44.9966 37.5861L53.714 28.7416ZM70.723 19.1831C64.1412 12.599 55.0473 8.52728 45.0002 8.52728C34.9523 8.52728 25.8584 12.599 19.2767 19.1838C12.6949 25.7678 8.62456 34.8649 8.62456 44.9154C8.62456 54.966 12.6949 64.0638 19.2767 70.6471C25.8584 77.2318 34.9523 81.3043 45.0002 81.3043C55.0473 81.3043 64.1412 77.2326 70.723 70.6471C77.3047 64.0638 81.3751 54.966 81.3751 44.9154C81.3751 34.8649 77.3055 25.7678 70.723 19.1831Z" fill="#FF4141"/>
</g>
<defs>
<clipPath id="clip0_75_899">
<rect width="89.14" height="89.17" fill="white" transform="translate(0.430176 0.330078)"/>
</clipPath>
</defs>
</svg>
