<svg width="20" height="20" viewBox="0 0 20 20" fill="none" xmlns="http://www.w3.org/2000/svg">
<path d="M13.75 1.875V3.125H18.125C18.2908 3.125 18.4497 3.19085 18.5669 3.30806C18.6842 3.42527 18.75 3.58424 18.75 3.75C18.75 3.91576 18.6842 4.07473 18.5669 4.19194C18.4497 4.30915 18.2908 4.375 18.125 4.375H17.4525L16.3863 17.7C16.336 18.3265 16.0516 18.9111 15.5897 19.3373C15.1278 19.7635 14.5223 20.0001 13.8937 20H6.10625C5.47774 20.0001 4.87224 19.7635 4.41034 19.3373C3.94844 18.9111 3.66403 18.3265 3.61375 17.7L2.5475 4.375H1.875C1.70924 4.375 1.55027 4.30915 1.43306 4.19194C1.31585 4.07473 1.25 3.91576 1.25 3.75C1.25 3.58424 1.31585 3.42527 1.43306 3.30806C1.55027 3.19085 1.70924 3.125 1.875 3.125H6.25V1.875C6.25 1.37772 6.44754 0.900805 6.79917 0.549175C7.15081 0.197544 7.62772 0 8.125 0L11.875 0C12.3723 0 12.8492 0.197544 13.2008 0.549175C13.5525 0.900805 13.75 1.37772 13.75 1.875ZM7.5 1.875V3.125H12.5V1.875C12.5 1.70924 12.4342 1.55027 12.3169 1.43306C12.1997 1.31585 12.0408 1.25 11.875 1.25H8.125C7.95924 1.25 7.80027 1.31585 7.68306 1.43306C7.56585 1.55027 7.5 1.70924 7.5 1.875ZM5.625 6.28625L6.25 16.9113C6.25334 16.9943 6.27321 17.0759 6.30845 17.1511C6.34369 17.2264 6.39359 17.2939 6.45524 17.3497C6.51689 17.4054 6.58904 17.4483 6.66747 17.4759C6.7459 17.5034 6.82903 17.515 6.912 17.51C6.99498 17.5051 7.07612 17.4836 7.15069 17.4468C7.22525 17.4101 7.29174 17.3589 7.34627 17.2961C7.40079 17.2334 7.44225 17.1604 7.46821 17.0814C7.49418 17.0025 7.50414 16.9191 7.4975 16.8363L6.8725 6.21125C6.86916 6.12819 6.84929 6.04664 6.81405 5.97136C6.77881 5.89607 6.72891 5.82858 6.66726 5.77282C6.60561 5.71706 6.53346 5.67415 6.45503 5.64662C6.3766 5.61909 6.29347 5.60747 6.2105 5.61246C6.12752 5.61745 6.04638 5.63894 5.97181 5.67567C5.89725 5.7124 5.83076 5.76364 5.77623 5.82639C5.72171 5.88913 5.68025 5.96212 5.65429 6.04108C5.62832 6.12004 5.61836 6.20339 5.625 6.28625ZM13.7875 5.62625C13.6221 5.61669 13.4596 5.6732 13.3359 5.78337C13.2121 5.89354 13.1372 6.04834 13.1275 6.21375L12.5025 16.8387C12.4971 17.0017 12.5557 17.1603 12.6656 17.2807C12.7755 17.4011 12.9281 17.4738 13.0909 17.4833C13.2537 17.4927 13.4137 17.4382 13.5368 17.3313C13.66 17.2245 13.7365 17.0737 13.75 16.9113L14.375 6.28625C14.3846 6.12083 14.328 5.95839 14.2179 5.83463C14.1077 5.71087 13.9529 5.63592 13.7875 5.62625ZM10 5.625C9.83424 5.625 9.67527 5.69085 9.55806 5.80806C9.44085 5.92527 9.375 6.08424 9.375 6.25V16.875C9.375 17.0408 9.44085 17.1997 9.55806 17.3169C9.67527 17.4342 9.83424 17.5 10 17.5C10.1658 17.5 10.3247 17.4342 10.4419 17.3169C10.5592 17.1997 10.625 17.0408 10.625 16.875V6.25C10.625 6.08424 10.5592 5.92527 10.4419 5.80806C10.3247 5.69085 10.1658 5.625 10 5.625Z" fill="#FFE1E1"/>
</svg>
