<svg width="24" height="24" viewBox="0 0 24 24" fill="none" xmlns="http://www.w3.org/2000/svg">
<path d="M12 15C12.7956 15 13.5587 14.6839 14.1213 14.1213C14.6839 13.5587 15 12.7956 15 12C15 11.2044 14.6839 10.4413 14.1213 9.87868C13.5587 9.31607 12.7956 9 12 9C11.2044 9 10.4413 9.31607 9.87868 9.87868C9.31607 10.4413 9 11.2044 9 12C9 12.7956 9.31607 13.5587 9.87868 14.1213C10.4413 14.6839 11.2044 15 12 15V15Z" fill="white"/>
<path fill-rule="evenodd" clip-rule="evenodd" d="M0.796757 12.708C0.620482 12.25 0.620482 11.7428 0.796757 11.2848C1.66943 9.02217 3.2069 7.07691 5.20671 5.70514C7.20652 4.33338 9.57489 3.59945 12 3.59998C17.1084 3.59998 21.4716 6.79198 23.2032 11.292C23.3796 11.7492 23.3784 12.2568 23.2032 12.7152C22.3305 14.9778 20.793 16.923 18.7932 18.2948C16.7934 19.6666 14.425 20.4005 12 20.4C6.89156 20.4 2.52836 17.208 0.796757 12.708V12.708ZM16.8 12C16.8 13.273 16.2942 14.4939 15.3941 15.3941C14.4939 16.2943 13.273 16.8 12 16.8C10.7269 16.8 9.50602 16.2943 8.60584 15.3941C7.70567 14.4939 7.19996 13.273 7.19996 12C7.19996 10.7269 7.70567 9.50604 8.60584 8.60586C9.50602 7.70569 10.7269 7.19998 12 7.19998C13.273 7.19998 14.4939 7.70569 15.3941 8.60586C16.2942 9.50604 16.8 10.7269 16.8 12V12Z" fill="white"/>
</svg>
