<svg width="90" height="90" viewBox="0 0 90 90" fill="none" xmlns="http://www.w3.org/2000/svg">
<g clip-path="url(#clip0_73_84)">
<path d="M45.0003 0.333252C51.9133 0.333252 58.4554 1.90874 64.3008 4.71887C61.9081 6.61249 59.6896 8.43036 57.6225 10.1801C53.6851 8.74849 49.4374 7.96832 45.0079 7.96832C34.8086 7.96832 25.571 12.104 18.8927 18.7922C12.2068 25.4805 8.07257 34.7138 8.07257 44.9166C8.07257 55.1194 12.2068 64.3527 18.8927 71.0409C25.5786 77.7292 34.8086 81.8648 45.0079 81.8648C55.2071 81.8648 64.4447 77.7292 71.123 71.0409C77.8089 64.3527 81.9431 55.1194 81.9431 44.9166C81.9431 42.4928 81.7084 40.1144 81.2617 37.8193C83.1773 35.3197 85.1384 32.8277 87.145 30.3584C88.7199 34.9183 89.5755 39.819 89.5755 44.9166C89.5755 57.2251 84.5857 68.3747 76.5217 76.4415C68.4577 84.5083 57.312 89.4999 45.0079 89.4999C32.7037 89.4999 21.558 84.5083 13.494 76.4415C5.42244 68.3747 0.432617 57.2251 0.432617 44.9166C0.432617 32.6081 5.42244 21.4584 13.4864 13.3916C21.5504 5.32483 32.6961 0.333252 45.0003 0.333252ZM24.2384 37.5921L35.1115 37.4482L35.9217 37.6602C38.1175 38.9252 40.1846 40.3719 42.1154 42.008C43.5086 43.1896 44.8413 44.4773 46.1058 45.871C50.0052 39.5917 54.1622 33.8276 58.5538 28.5254C63.3619 22.7158 68.4653 17.444 73.8262 12.6342L74.8862 12.2252H86.7512L84.3585 14.8838C77.0063 23.0567 70.3355 31.5022 64.3084 40.2128C58.2812 48.9311 52.8901 57.9295 48.0971 67.1931L46.6055 70.0714L45.235 67.1401C42.706 61.7092 39.6773 56.7252 36.0655 52.2714C32.4538 47.8176 28.2514 43.8637 23.3525 40.5007L24.2384 37.5921Z" fill="#01A601"/>
</g>
<defs>
<clipPath id="clip0_73_84">
<rect width="89.1353" height="89.1667" fill="white" transform="translate(0.432617 0.333252)"/>
</clipPath>
</defs>
</svg>
